<svg width="118" height="44" viewBox="0 0 118 44" fill="none" xmlns="http://www.w3.org/2000/svg">
<g clip-path="url(#clip0_328_1940)">
<path d="M45.5401 30.6677C43.4847 30.7428 41.4182 30.7637 39.3684 30.9055C30.6583 31.5019 21.9481 32.14 13.2381 32.749C12.4271 32.8074 11.6049 32.7906 10.7884 32.7615C7.98868 32.6655 6.9888 31.6437 7.71093 29.6501C7.83314 29.3123 7.94425 28.9661 8.10534 28.4864C9.47185 28.3696 10.8717 28.2821 12.2604 28.1193C13.5825 27.965 14.8712 27.6564 16.1988 27.5439C17.421 27.4396 18.6707 27.5522 19.8985 27.4938C20.8705 27.4479 21.8483 27.3478 22.7926 27.1768C24.4868 26.8765 26.1588 26.5095 27.8476 26.1759C28.0975 26.1258 28.5307 26.0423 28.6029 26.1215C29.7528 27.3352 30.3083 26.2717 31.0528 25.9965C40.0184 25.5585 48.8285 24.1405 57.7385 23.2813C50.7116 23.5148 43.6735 23.6275 36.6576 24.0153C26.3087 24.5909 15.9767 25.3667 5.63339 26.0549C4.68906 26.1174 3.74473 26.18 2.79484 26.2009C1.11169 26.2342 -0.0326202 25.0079 0.000709285 23.3522C0.0284839 21.8508 1.27834 22.0802 2.66707 22.0593C6.46663 21.9966 10.2606 21.8007 14.0547 21.613C17.6098 21.4378 21.165 21.2125 24.7201 21.004C30.4417 20.6704 36.1521 20.2575 41.8849 20.0197C45.24 19.8822 48.623 20.0114 51.9893 20.0365C54.5779 20.0573 57.1386 19.5276 59.7772 20.1616C60.8882 20.4284 62.3214 19.828 63.6157 19.8071C69.0429 19.7279 74.4701 19.6902 79.8971 19.6902C82.9746 19.6902 86.0465 19.8445 89.1239 19.828C93.6123 19.8029 98.1007 19.7444 102.584 19.5818C104.383 19.5151 105.716 20.0365 105.972 21.221C106.155 22.0676 105.394 23.0395 104.967 23.9361C104.9 24.078 104.378 24.1572 104.067 24.1613C96.8897 24.2155 89.6906 24.0153 82.5413 24.3657C74.3645 24.762 66.232 25.6419 58.0829 26.3217C57.3552 26.3844 56.6442 26.5428 55.9276 26.6555C55.9333 26.7889 55.9443 26.9224 55.9499 27.0601C59.0939 27.0601 62.2381 27.0057 65.3822 27.0767C68.3485 27.1435 71.3148 27.3937 74.2811 27.4729C76.4753 27.5313 78.6807 27.5104 80.8692 27.3937C82.8969 27.2895 84.1967 28.1236 84.3579 29.8503C84.4745 31.0932 83.5412 31.7438 81.6248 31.8605C73.6479 32.361 65.671 32.874 57.6996 33.4037C56.9887 33.4496 56.2943 33.6289 55.5778 33.8876C61.6438 34.5591 67.8429 34.7051 73.4646 36.707L73.5701 37.3201C72.7314 37.5579 71.8815 38.0167 71.0593 37.9999C65.6544 37.8707 60.2605 37.6288 54.8556 37.4369C48.7396 37.2158 42.6292 37.0198 36.5132 36.7862C35.6467 36.7529 34.7967 36.5695 33.9301 36.4735C31.2526 36.1815 30.8916 34.9886 31.7304 32.7323C31.8304 32.457 32.3082 32.0858 32.6469 32.0607C35.0023 31.8898 37.4409 31.481 39.7073 31.7772C41.9571 32.0692 43.7013 31.5854 45.5955 31.0973C45.5732 30.9513 45.5567 30.8096 45.5344 30.6636L45.5401 30.6677Z" fill="#5E1EE7"/>
<path d="M9.57832 30.934C7.80858 30.934 6.28054 30.5491 4.99421 29.7794C3.71606 29.0098 2.72877 27.9329 2.03235 26.549C1.34412 25.1652 1 23.5562 1 21.7219C1 19.8876 1.34412 18.2786 2.03235 16.8947C2.72877 15.5109 3.71606 14.4341 4.99421 13.6644C6.28054 12.8946 7.80858 12.5098 9.57832 12.5098C11.6102 12.5098 13.3144 13.0134 14.6909 14.0206C16.0756 15.0277 17.0505 16.3911 17.6158 18.1107L14.2485 19.0442C13.9207 17.9715 13.3677 17.1404 12.5893 16.5508C11.811 15.9531 10.8073 15.6542 9.57832 15.6542C8.45584 15.6542 7.51771 15.9039 6.76395 16.4034C6.01835 16.9029 5.45712 17.6071 5.08024 18.5161C4.70334 19.425 4.5149 20.4936 4.5149 21.7219C4.5149 22.9502 4.70334 24.0188 5.08024 24.9277C5.45712 25.8366 6.01835 26.5409 6.76395 27.0404C7.51771 27.5398 8.45584 27.7896 9.57832 27.7896C10.8073 27.7896 11.811 27.4907 12.5893 26.893C13.3677 26.2952 13.9207 25.464 14.2485 24.3995L17.6158 25.333C17.0505 27.0526 16.0756 28.416 14.6909 29.4232C13.3144 30.4304 11.6102 30.934 9.57832 30.934ZM28.8756 30.5655V24.3013C28.8756 23.9984 28.8594 23.6134 28.8265 23.1467C28.7938 22.6718 28.6913 22.1968 28.5192 21.7219C28.3472 21.247 28.0645 20.8498 27.6712 20.5305C27.2863 20.2111 26.7372 20.0514 26.0244 20.0514C25.7377 20.0514 25.4305 20.0965 25.1027 20.1865C24.775 20.2766 24.4677 20.4527 24.1809 20.7147C23.8943 20.9685 23.6566 21.3452 23.4681 21.8447C23.2879 22.3442 23.1977 23.0074 23.1977 23.8345L21.2805 22.9256C21.2805 21.8774 21.4936 20.8948 21.9196 19.9777C22.3457 19.0606 22.9848 18.3195 23.8368 17.7545C24.6971 17.1895 25.7786 16.907 27.0813 16.907C28.122 16.907 28.97 17.0831 29.6253 17.4352C30.2808 17.7873 30.7889 18.2336 31.1493 18.774C31.518 19.3145 31.7802 19.8795 31.9358 20.469C32.0916 21.0504 32.1858 21.5826 32.2185 22.0658C32.2514 22.549 32.2676 22.901 32.2676 23.1221V30.5655H28.8756ZM19.8057 30.5655V12.8783H22.7799V21.9675H23.1977V30.5655H19.8057ZM38.6521 30.934C37.7016 30.934 36.8946 30.7539 36.231 30.3936C35.5755 30.0251 35.0757 29.5379 34.7316 28.9319C34.3956 28.3178 34.2277 27.6422 34.2277 26.9052C34.2277 26.2911 34.3219 25.7302 34.5104 25.2225C34.6989 24.7148 35.002 24.2686 35.4198 23.8837C35.8458 23.4906 36.4153 23.1631 37.1281 22.901C37.6197 22.7209 38.2055 22.5613 38.8856 22.422C39.5657 22.2828 40.3358 22.1518 41.1961 22.029C42.0564 21.898 43.0027 21.7546 44.035 21.5991L42.8306 22.2623C42.8306 21.4762 42.6421 20.8989 42.2653 20.5305C41.8884 20.162 41.2575 19.9777 40.3726 19.9777C39.8811 19.9777 39.369 20.0965 38.8364 20.3339C38.3038 20.5714 37.9311 20.9931 37.718 21.5991L34.6947 20.641C35.0307 19.5437 35.6615 18.6512 36.5874 17.9633C37.5133 17.2755 38.775 16.9316 40.3726 16.9316C41.5443 16.9316 42.5848 17.1117 43.4943 17.472C44.4037 17.8323 45.0919 18.4547 45.559 19.339C45.8212 19.8303 45.9768 20.3216 46.026 20.813C46.0751 21.3043 46.0997 21.8529 46.0997 22.4589V30.5655H43.1747V27.8387L43.5926 28.4037C42.9454 29.2962 42.2449 29.9432 41.491 30.3444C40.7455 30.7375 39.7992 30.934 38.6521 30.934ZM39.3649 28.3055C39.9794 28.3055 40.4955 28.1991 40.9134 27.9861C41.3394 27.765 41.6754 27.5152 41.9212 27.2369C42.1751 26.9585 42.3472 26.7251 42.4373 26.5368C42.6094 26.1764 42.7077 25.7588 42.7323 25.2839C42.765 24.8007 42.7815 24.3995 42.7815 24.0802L43.7646 24.3258C42.7733 24.4897 41.9703 24.6288 41.3558 24.7435C40.7413 24.8499 40.2456 24.9481 39.8688 25.0382C39.4919 25.1284 39.1601 25.2266 38.8733 25.333C38.5456 25.464 38.2792 25.6074 38.0744 25.7629C37.8778 25.9103 37.7303 26.0742 37.632 26.2543C37.5418 26.4343 37.4968 26.635 37.4968 26.8561C37.4968 27.159 37.5706 27.4211 37.718 27.6422C37.8737 27.8552 38.0909 28.0188 38.3694 28.1335C38.6479 28.2482 38.9797 28.3055 39.3649 28.3055ZM56.7675 30.5655C55.8499 30.7375 54.9486 30.8112 54.0637 30.7866C53.1871 30.7702 52.4006 30.6188 51.704 30.3321C51.0158 30.0374 50.4915 29.5665 50.1309 28.9196C49.8033 28.3136 49.6312 27.6995 49.6148 27.0772C49.5985 26.4466 49.5902 25.7342 49.5902 24.94V13.6152H52.933V24.7435C52.933 25.2593 52.9372 25.7261 52.9453 26.1437C52.9618 26.5532 53.0478 26.8807 53.2034 27.1263C53.4984 27.5931 53.9695 27.8469 54.6167 27.8879C55.2641 27.9289 55.9809 27.896 56.7675 27.7896V30.5655ZM47.3289 19.8795V17.3001H56.7675V19.8795H47.3289ZM66.6076 30.934C65.4934 30.934 64.4323 30.7375 63.4246 30.3444C62.4168 29.9432 61.5238 29.3537 60.7454 28.5757C59.9753 27.7977 59.3648 26.8357 58.9142 25.6892C58.4718 24.5428 58.2505 23.2204 58.2505 21.7219C58.2505 19.7648 58.6234 18.1026 59.3689 16.7351C60.1228 15.3594 61.1305 14.3112 62.3922 13.5907C63.6622 12.8701 65.0673 12.5098 66.6076 12.5098C68.8854 12.5098 70.6756 13.0379 71.9783 14.0943C73.281 15.1506 74.1536 16.645 74.5961 18.5775L71.1795 19.0688C70.8599 18.037 70.3356 17.2141 69.6064 16.5999C68.8854 15.9776 67.9595 15.6624 66.8289 15.6542C65.7063 15.6378 64.7723 15.8794 64.0268 16.3789C63.2812 16.8784 62.7199 17.5867 62.3431 18.5038C61.9744 19.4209 61.79 20.4936 61.79 21.7219C61.79 22.9502 61.9744 24.0146 62.3431 24.9154C62.7199 25.8162 63.2812 26.5163 64.0268 27.0158C64.7723 27.5152 65.7063 27.7732 66.8289 27.7896C67.5908 27.806 68.2791 27.6749 68.8936 27.3966C69.5162 27.1182 70.0407 26.68 70.4667 26.0823C70.8927 25.4846 71.1959 24.7189 71.3761 23.7854H68.574V21.206H74.9402C74.9566 21.3125 74.9689 21.5008 74.977 21.771C74.9852 22.0412 74.9893 22.1968 74.9893 22.2378C74.9893 23.9328 74.6452 25.4354 73.957 26.7456C73.2687 28.0557 72.2979 29.0834 71.0443 29.8286C69.7907 30.5655 68.3118 30.934 66.6076 30.934ZM76.9609 30.5655V12.8783H84.4332C84.6052 12.8783 84.8346 12.8864 85.1214 12.9028C85.4163 12.911 85.6786 12.9356 85.9079 12.9765C86.9649 13.1403 87.8293 13.4883 88.5011 14.0206C89.1812 14.5528 89.6809 15.2243 90.0005 16.0349C90.32 16.8374 90.4798 17.7341 90.4798 18.7249C90.4798 19.7157 90.3159 20.6164 89.9882 21.4271C89.6686 22.2296 89.1689 22.8969 88.4888 23.4292C87.817 23.9615 86.9567 24.3094 85.9079 24.4732C85.6786 24.5059 85.4163 24.5305 85.1214 24.5469C84.8264 24.5634 84.5971 24.5715 84.4332 24.5715H80.3038V30.5655H76.9609ZM80.3038 21.4517H84.2857C84.4577 21.4517 84.6462 21.4435 84.851 21.4271C85.0558 21.4107 85.2443 21.378 85.4163 21.3288C85.8669 21.206 86.2152 21.0013 86.461 20.7147C86.7068 20.4199 86.8747 20.0965 86.9649 19.7444C87.0632 19.384 87.1124 19.0442 87.1124 18.7249C87.1124 18.4055 87.0632 18.0698 86.9649 17.7177C86.8747 17.3574 86.7068 17.0339 86.461 16.7473C86.2152 16.4526 85.8669 16.2437 85.4163 16.1209C85.2443 16.0718 85.0558 16.039 84.851 16.0227C84.6462 16.0063 84.4577 15.9981 84.2857 15.9981H80.3038V21.4517ZM96.5605 30.5655V15.9981H90.9809V12.8783H105.483V15.9981H99.9033V30.5655H96.5605Z" fill="#FBFBFB"/>
</g>
<defs>
<clipPath id="clip0_328_1940">
<rect width="106" height="32" fill="white" transform="translate(0 6)"/>
</clipPath>
</defs>
</svg>
