<svg width="106" height="32" viewBox="0 0 106 32" fill="none" xmlns="http://www.w3.org/2000/svg">
<g clip-path="url(#clip0_309_190)">
<path d="M45.5401 24.6673C43.4847 24.7424 41.4182 24.7633 39.3684 24.9052C30.6583 25.5015 21.9481 26.1396 13.2381 26.7487C12.4271 26.807 11.6049 26.7903 10.7884 26.7611C7.98868 26.6651 6.9888 25.6434 7.71093 23.6497C7.83314 23.3119 7.94425 22.9657 8.10534 22.4861C9.47185 22.3692 10.8717 22.2817 12.2604 22.119C13.5825 21.9647 14.8712 21.656 16.1988 21.5435C17.421 21.4393 18.6707 21.5518 19.8985 21.4935C20.8705 21.4475 21.8483 21.3474 22.7926 21.1764C24.4868 20.8761 26.1588 20.5091 27.8476 20.1755C28.0975 20.1255 28.5307 20.0419 28.6029 20.1212C29.7528 21.3349 30.3083 20.2713 31.0528 19.9962C40.0184 19.5581 48.8285 18.1401 57.7385 17.2809C50.7116 17.5144 43.6735 17.6271 36.6576 18.015C26.3087 18.5906 15.9767 19.3664 5.63339 20.0545C4.68906 20.117 3.74473 20.1797 2.79484 20.2005C1.11169 20.2339 -0.0326202 19.0076 0.000709285 17.3518C0.0284839 15.8504 1.27834 16.0798 2.66707 16.0589C6.46663 15.9963 10.2606 15.8004 14.0547 15.6126C17.6098 15.4374 21.165 15.2122 24.7201 15.0037C30.4417 14.67 36.1521 14.2572 41.8849 14.0194C45.24 13.8818 48.623 14.0111 51.9893 14.0361C54.5779 14.057 57.1386 13.5272 59.7772 14.1612C60.8882 14.4281 62.3214 13.8276 63.6157 13.8067C69.0429 13.7275 74.4701 13.6899 79.8971 13.6899C82.9746 13.6899 86.0465 13.8442 89.1239 13.8276C93.6123 13.8026 98.1007 13.7441 102.584 13.5815C104.383 13.5147 105.716 14.0361 105.972 15.2206C106.155 16.0672 105.394 17.0391 104.967 17.9357C104.9 18.0776 104.378 18.1568 104.067 18.161C96.8897 18.2152 89.6906 18.015 82.5413 18.3653C74.3645 18.7616 66.232 19.6415 58.0829 20.3214C57.3552 20.384 56.6442 20.5425 55.9276 20.6552C55.9333 20.7886 55.9443 20.922 55.9499 21.0597C59.0939 21.0597 62.2381 21.0054 65.3822 21.0763C68.3485 21.1431 71.3148 21.3934 74.2811 21.4726C76.4753 21.5309 78.6807 21.51 80.8692 21.3934C82.8969 21.2891 84.1967 22.1233 84.3579 23.8499C84.4745 25.0928 83.5412 25.7435 81.6248 25.8602C73.6479 26.3607 65.671 26.8736 57.6996 27.4033C56.9887 27.4492 56.2943 27.6286 55.5778 27.8873C61.6438 28.5587 67.8429 28.7047 73.4646 30.7067L73.5701 31.3197C72.7314 31.5575 71.8815 32.0163 71.0593 31.9996C65.6544 31.8703 60.2605 31.6285 54.8556 31.4366C48.7396 31.2155 42.6292 31.0194 36.5132 30.7859C35.6467 30.7526 34.7967 30.5691 33.9301 30.4731C31.2526 30.1811 30.8916 28.9883 31.7304 26.7319C31.8304 26.4566 32.3082 26.0854 32.6469 26.0604C35.0023 25.8895 37.4409 25.4806 39.7073 25.7768C41.9571 26.0688 43.7013 25.585 45.5955 25.0969C45.5732 24.9509 45.5567 24.8092 45.5344 24.6632L45.5401 24.6673Z" fill="#D1FF52"/>
<path d="M9.57832 24.9341C7.80858 24.9341 6.28054 24.5492 4.99421 23.7795C3.71606 23.0099 2.72877 21.933 2.03235 20.5492C1.34412 19.1653 1 17.5563 1 15.722C1 13.8878 1.34412 12.2787 2.03235 10.8949C2.72877 9.511 3.71606 8.43419 4.99421 7.66447C6.28054 6.89476 7.80858 6.50989 9.57832 6.50989C11.6102 6.50989 13.3144 7.01348 14.6909 8.02068C16.0756 9.02787 17.0505 10.3913 17.6158 12.1109L14.2485 13.0444C13.9207 11.9716 13.3677 11.1405 12.5893 10.5509C11.811 9.95318 10.8073 9.65429 9.57832 9.65429C8.45584 9.65429 7.51771 9.90405 6.76395 10.4035C6.01835 10.903 5.45712 11.6073 5.08024 12.5162C4.70334 13.4251 4.5149 14.4937 4.5149 15.722C4.5149 16.9503 4.70334 18.0189 5.08024 18.9278C5.45712 19.8368 6.01835 20.541 6.76395 21.0405C7.51771 21.5399 8.45584 21.7897 9.57832 21.7897C10.8073 21.7897 11.811 21.4908 12.5893 20.8931C13.3677 20.2954 13.9207 19.4641 14.2485 18.3997L17.6158 19.3332C17.0505 21.0528 16.0756 22.4162 14.6909 23.4233C13.3144 24.4305 11.6102 24.9341 9.57832 24.9341ZM28.8756 24.5656V18.3014C28.8756 17.9985 28.8594 17.6136 28.8265 17.1468C28.7938 16.6719 28.6913 16.1969 28.5192 15.722C28.3472 15.2471 28.0645 14.8499 27.6712 14.5306C27.2863 14.2112 26.7372 14.0515 26.0244 14.0515C25.7377 14.0515 25.4305 14.0966 25.1027 14.1867C24.775 14.2767 24.4677 14.4528 24.1809 14.7148C23.8943 14.9687 23.6566 15.3453 23.4681 15.8448C23.2879 16.3443 23.1977 17.0076 23.1977 17.8347L21.2805 16.9257C21.2805 15.8775 21.4936 14.895 21.9196 13.9778C22.3457 13.0607 22.9848 12.3197 23.8368 11.7547C24.6971 11.1896 25.7786 10.9071 27.0813 10.9071C28.122 10.9071 28.97 11.0832 29.6253 11.4353C30.2808 11.7874 30.7889 12.2337 31.1493 12.7741C31.518 13.3146 31.7802 13.8796 31.9358 14.4692C32.0916 15.0506 32.1858 15.5828 32.2185 16.0659C32.2514 16.5491 32.2676 16.9012 32.2676 17.1223V24.5656H28.8756ZM19.8057 24.5656V6.87837H22.7799V15.9677H23.1977V24.5656H19.8057ZM38.6521 24.9341C37.7016 24.9341 36.8946 24.754 36.231 24.3937C35.5755 24.0252 35.0757 23.538 34.7316 22.932C34.3956 22.3179 34.2277 21.6423 34.2277 20.9054C34.2277 20.2912 34.3219 19.7304 34.5104 19.2226C34.6989 18.7149 35.002 18.2687 35.4198 17.8838C35.8458 17.4907 36.4153 17.1632 37.1281 16.9012C37.6197 16.7211 38.2055 16.5614 38.8856 16.4221C39.5657 16.2829 40.3358 16.1519 41.1961 16.0291C42.0564 15.8981 43.0027 15.7547 44.035 15.5992L42.8306 16.2625C42.8306 15.4764 42.6421 14.8991 42.2653 14.5306C41.8884 14.1621 41.2575 13.9778 40.3726 13.9778C39.8811 13.9778 39.369 14.0966 38.8364 14.3341C38.3038 14.5715 37.9311 14.9932 37.718 15.5992L34.6947 14.6411C35.0307 13.5438 35.6615 12.6513 36.5874 11.9635C37.5133 11.2756 38.775 10.9317 40.3726 10.9317C41.5443 10.9317 42.5848 11.1118 43.4943 11.4722C44.4037 11.8325 45.0919 12.4548 45.559 13.3391C45.8212 13.8305 45.9768 14.3218 46.026 14.8131C46.0751 15.3044 46.0997 15.853 46.0997 16.459V24.5656H43.1747V21.8389L43.5926 22.4039C42.9454 23.2964 42.2449 23.9434 41.491 24.3446C40.7455 24.7376 39.7992 24.9341 38.6521 24.9341ZM39.3649 22.3056C39.9794 22.3056 40.4955 22.1992 40.9134 21.9863C41.3394 21.7652 41.6754 21.5154 41.9212 21.237C42.1751 20.9586 42.3472 20.7253 42.4373 20.5369C42.6094 20.1765 42.7077 19.7589 42.7323 19.284C42.765 18.8009 42.7815 18.3997 42.7815 18.0803L43.7646 18.326C42.7733 18.4898 41.9703 18.6289 41.3558 18.7436C40.7413 18.85 40.2456 18.9482 39.8688 19.0384C39.4919 19.1285 39.1601 19.2268 38.8733 19.3332C38.5456 19.4641 38.2792 19.6075 38.0744 19.7631C37.8778 19.9105 37.7303 20.0743 37.632 20.2544C37.5418 20.4345 37.4968 20.6351 37.4968 20.8562C37.4968 21.1592 37.5706 21.4212 37.718 21.6423C37.8737 21.8553 38.0909 22.019 38.3694 22.1336C38.6479 22.2483 38.9797 22.3056 39.3649 22.3056ZM56.7675 24.5656C55.8499 24.7376 54.9486 24.8113 54.0637 24.7867C53.1871 24.7703 52.4006 24.6189 51.704 24.3323C51.0158 24.0375 50.4915 23.5666 50.1309 22.9197C49.8033 22.3137 49.6312 21.6996 49.6148 21.0773C49.5985 20.4468 49.5902 19.7343 49.5902 18.9401V7.61534H52.933V18.7436C52.933 19.2595 52.9372 19.7262 52.9453 20.1438C52.9618 20.5533 53.0478 20.8808 53.2034 21.1265C53.4984 21.5932 53.9695 21.847 54.6167 21.888C55.2641 21.929 55.9809 21.8961 56.7675 21.7897V24.5656ZM47.3289 13.8796V11.3002H56.7675V13.8796H47.3289ZM66.6076 24.9341C65.4934 24.9341 64.4323 24.7376 63.4246 24.3446C62.4168 23.9434 61.5238 23.3538 60.7454 22.5758C59.9753 21.7979 59.3648 20.8358 58.9142 19.6894C58.4718 18.5429 58.2505 17.2205 58.2505 15.722C58.2505 13.7649 58.6234 12.1027 59.3689 10.7352C60.1228 9.3595 61.1305 8.31136 62.3922 7.59078C63.6622 6.87019 65.0673 6.50989 66.6076 6.50989C68.8854 6.50989 70.6756 7.03805 71.9783 8.09437C73.281 9.1507 74.1536 10.6451 74.5961 12.5776L71.1795 13.0689C70.8599 12.0372 70.3356 11.2142 69.6064 10.6001C68.8854 9.97774 67.9595 9.66248 66.8289 9.65429C65.7063 9.63791 64.7723 9.87948 64.0268 10.379C63.2812 10.8785 62.7199 11.5868 62.3431 12.5039C61.9744 13.421 61.79 14.4937 61.79 15.722C61.79 16.9503 61.9744 18.0148 62.3431 18.9155C62.7199 19.8163 63.2812 20.5165 64.0268 21.0159C64.7723 21.5154 65.7063 21.7733 66.8289 21.7897C67.5908 21.8062 68.2791 21.675 68.8936 21.3967C69.5162 21.1183 70.0407 20.6801 70.4667 20.0824C70.8927 19.4847 71.1959 18.719 71.3761 17.7855H68.574V15.2061H74.9402C74.9566 15.3126 74.9689 15.5009 74.977 15.7711C74.9852 16.0414 74.9893 16.1969 74.9893 16.2379C74.9893 17.9329 74.6452 19.4356 73.957 20.7457C73.2687 22.0558 72.2979 23.0836 71.0443 23.8287C69.7907 24.5656 68.3118 24.9341 66.6076 24.9341ZM76.9609 24.5656V6.87837H84.4332C84.6052 6.87837 84.8346 6.88656 85.1214 6.90294C85.4163 6.91112 85.6786 6.93569 85.9079 6.97664C86.9649 7.14041 87.8293 7.48841 88.5011 8.02068C89.1812 8.55294 89.6809 9.22439 90.0005 10.0351C90.32 10.8375 90.4798 11.7342 90.4798 12.725C90.4798 13.7158 90.3159 14.6166 89.9882 15.4272C89.6686 16.2298 89.1689 16.897 88.4888 17.4293C87.817 17.9616 86.9567 18.3095 85.9079 18.4734C85.6786 18.5061 85.4163 18.5306 85.1214 18.5471C84.8264 18.5635 84.5971 18.5716 84.4332 18.5716H80.3038V24.5656H76.9609ZM80.3038 15.4518H84.2857C84.4577 15.4518 84.6462 15.4437 84.851 15.4272C85.0558 15.4108 85.2443 15.3781 85.4163 15.329C85.8669 15.2061 86.2152 15.0014 86.461 14.7148C86.7068 14.42 86.8747 14.0966 86.9649 13.7445C87.0632 13.3842 87.1124 13.0444 87.1124 12.725C87.1124 12.4056 87.0632 12.0699 86.9649 11.7178C86.8747 11.3575 86.7068 11.0341 86.461 10.7475C86.2152 10.4527 85.8669 10.2439 85.4163 10.121C85.2443 10.0719 85.0558 10.0392 84.851 10.0228C84.6462 10.0064 84.4577 9.99821 84.2857 9.99821H80.3038V15.4518ZM96.5605 24.5656V9.99821H90.9809V6.87837H105.483V9.99821H99.9033V24.5656H96.5605Z" fill="#131313"/>
</g>
<defs>
<clipPath id="clip0_309_190">
<rect width="106" height="32" fill="white"/>
</clipPath>
</defs>
</svg>
