<svg width="78" height="24" viewBox="0 0 78 24" fill="none" xmlns="http://www.w3.org/2000/svg">
<g clip-path="url(#clip0_330_258)">
<path d="M33.5106 18.5005C31.9982 18.5568 30.4775 18.5724 28.9692 18.6788C22.5599 19.1261 16.1505 19.6047 9.74124 20.0615C9.14445 20.1052 8.53948 20.0927 7.9386 20.0708C5.87846 19.9988 5.1427 19.2325 5.67408 17.7372C5.76401 17.4839 5.84577 17.2242 5.96431 16.8645C6.96985 16.7769 7.99992 16.7112 9.02182 16.5892C9.99466 16.4735 10.943 16.242 11.9199 16.1576C12.8192 16.0794 13.7389 16.1638 14.6423 16.1201C15.3575 16.0856 16.077 16.0106 16.7719 15.8823C18.0186 15.657 19.2489 15.3818 20.4916 15.1316C20.6755 15.0941 20.9943 15.0314 21.0474 15.0908C21.8936 16.0011 22.3023 15.2035 22.8502 14.9971C29.4475 14.6686 35.9304 13.605 42.4868 12.9606C37.3161 13.1358 32.1371 13.2203 26.9744 13.5112C19.3593 13.9429 11.7564 14.5248 4.14533 15.0409C3.45044 15.0877 2.75556 15.1347 2.05658 15.1504C0.818039 15.1754 -0.0240035 14.2556 0.000521927 13.0138C0.0209598 11.8878 0.940662 12.0598 1.96256 12.0442C4.75846 11.9972 7.55029 11.8502 10.3421 11.7094C12.9582 11.578 15.5742 11.4091 18.1903 11.2527C22.4005 11.0025 26.6025 10.6929 30.821 10.5145C33.2898 10.4113 35.7792 10.5083 38.2563 10.527C40.1611 10.5427 42.0454 10.1454 43.987 10.6209C44.8046 10.821 45.8591 10.3707 46.8115 10.355C50.8051 10.2956 54.7987 10.2674 58.7922 10.2674C61.0568 10.2674 63.3172 10.3831 65.5817 10.3707C68.8845 10.3519 72.1873 10.308 75.486 10.1861C76.8103 10.136 77.7913 10.527 77.9794 11.4154C78.1143 12.0504 77.5543 12.7793 77.2395 13.4518C77.1905 13.5582 76.8063 13.6176 76.5773 13.6207C71.2962 13.6613 65.9987 13.5112 60.7379 13.774C54.7211 14.0712 48.7368 14.7311 42.7403 15.241C42.2048 15.288 41.6816 15.4068 41.1543 15.4913C41.1584 15.5914 41.1666 15.6915 41.1707 15.7948C43.4842 15.7948 45.7979 15.754 48.1114 15.8072C50.2942 15.8573 52.4769 16.045 54.6597 16.1044C56.2743 16.1482 57.8971 16.1325 59.5075 16.045C60.9996 15.9668 61.9561 16.5924 62.0747 17.8874C62.1605 18.8196 61.4737 19.3076 60.0635 19.3951C54.1937 19.7705 48.3239 20.1552 42.4582 20.5525C41.9351 20.5869 41.4241 20.7214 40.8969 20.9154C45.3605 21.419 49.9221 21.5285 54.0589 23.03L54.1365 23.4898C53.5193 23.6681 52.8939 24.0122 52.2889 23.9996C48.3117 23.9027 44.3427 23.7213 40.3654 23.5774C35.865 23.4116 31.3687 23.2645 26.8682 23.0894C26.2306 23.0644 25.6051 22.9268 24.9675 22.8548C22.9972 22.6358 22.7316 21.7412 23.3488 20.0489C23.4224 19.8424 23.7739 19.564 24.0232 19.5452C25.7564 19.4171 27.5508 19.1104 29.2186 19.3326C30.8741 19.5516 32.1576 19.1887 33.5514 18.8227C33.535 18.7132 33.5228 18.6069 33.5064 18.4974L33.5106 18.5005Z" fill="#D1FF52"/>
<path d="M7.0477 18.7006C5.74544 18.7006 4.62103 18.4119 3.67449 17.8346C2.73396 17.2574 2.00747 16.4497 1.49501 15.4118C0.988569 14.374 0.735352 13.1672 0.735352 11.7915C0.735352 10.4158 0.988569 9.20901 1.49501 8.17111C2.00747 7.13322 2.73396 6.32561 3.67449 5.74832C4.62103 5.17104 5.74544 4.88239 7.0477 4.88239C8.54288 4.88239 9.79692 5.26008 10.8098 6.01548C11.8287 6.77087 12.5461 7.79342 12.9621 9.08311L10.4842 9.78323C10.2431 8.9787 9.8361 8.35536 9.26336 7.91317C8.6906 7.46485 7.95205 7.24069 7.0477 7.24069C6.22173 7.24069 5.53141 7.42801 4.97675 7.80263C4.4281 8.17725 4.01512 8.70542 3.73779 9.38711C3.46045 10.0688 3.32179 10.8703 3.32179 11.7915C3.32179 12.7127 3.46045 13.5141 3.73779 14.1958C4.01512 14.8775 4.4281 15.4057 4.97675 15.7803C5.53141 16.1549 6.22173 16.3423 7.0477 16.3423C7.95205 16.3423 8.6906 16.1181 9.26336 15.6698C9.8361 15.2215 10.2431 14.5981 10.4842 13.7997L12.9621 14.4998C12.5461 15.7895 11.8287 16.8121 10.8098 17.5675C9.79692 18.3229 8.54288 18.7006 7.0477 18.7006ZM21.2476 18.4242V13.726C21.2476 13.4988 21.2356 13.2101 21.2114 12.8601C21.1874 12.5039 21.112 12.1476 20.9854 11.7915C20.8587 11.4353 20.6507 11.1374 20.3614 10.8979C20.0781 10.6584 19.6741 10.5386 19.1495 10.5386C18.9386 10.5386 18.7125 10.5724 18.4713 10.64C18.2301 10.7075 18.0041 10.8396 17.793 11.0361C17.5821 11.2265 17.4072 11.509 17.2685 11.8836C17.1359 12.2582 17.0695 12.7556 17.0695 13.376L15.6587 12.6943C15.6587 11.9081 15.8155 11.1712 16.129 10.4834C16.4426 9.79552 16.9129 9.23972 17.5398 8.81596C18.1728 8.3922 18.9687 8.18033 19.9273 8.18033C20.693 8.18033 21.317 8.31237 21.7993 8.57645C22.2816 8.84052 22.6555 9.17523 22.9207 9.58057C23.192 9.9859 23.3849 10.4097 23.4994 10.8518C23.6141 11.2879 23.6834 11.687 23.7074 12.0494C23.7316 12.4118 23.7436 12.6758 23.7436 12.8417V18.4242H21.2476ZM14.5735 18.4242V5.15875H16.762V11.9757H17.0695V18.4242H14.5735ZM28.4416 18.7006C27.7422 18.7006 27.1484 18.5655 26.66 18.2952C26.1777 18.0189 25.8099 17.6535 25.5567 17.199C25.3095 16.7384 25.1859 16.2317 25.1859 15.679C25.1859 15.2184 25.2552 14.7977 25.3939 14.4169C25.5326 14.0361 25.7557 13.7015 26.0632 13.4128C26.3766 13.118 26.7957 12.8724 27.3202 12.6758C27.6819 12.5408 28.113 12.421 28.6134 12.3166C29.1139 12.2121 29.6805 12.1139 30.3136 12.0218C30.9466 11.9236 31.643 11.816 32.4026 11.6994L31.5164 12.1968C31.5164 11.6072 31.3777 11.1743 31.1004 10.8979C30.8231 10.6215 30.3588 10.4834 29.7077 10.4834C29.3459 10.4834 28.9692 10.5724 28.5772 10.7505C28.1853 10.9286 27.9111 11.2449 27.7543 11.6994L25.5296 10.9808C25.7768 10.1579 26.241 9.48845 26.9223 8.97257C27.6036 8.45669 28.532 8.19875 29.7077 8.19875C30.5699 8.19875 31.3355 8.33386 32.0047 8.60408C32.6739 8.87431 33.1804 9.34105 33.524 10.0043C33.717 10.3728 33.8315 10.7413 33.8677 11.1098C33.9039 11.4783 33.9219 11.8897 33.9219 12.3442V18.4242H31.7696V16.3791L32.0771 16.8029C31.6008 17.4722 31.0853 17.9575 30.5306 18.2584C29.982 18.5532 29.2857 18.7006 28.4416 18.7006ZM28.9661 16.7292C29.4183 16.7292 29.7981 16.6494 30.1056 16.4897C30.4191 16.3238 30.6663 16.1365 30.8472 15.9277C31.034 15.7189 31.1606 15.5439 31.227 15.4026C31.3536 15.1324 31.4259 14.8192 31.444 14.463C31.4681 14.1006 31.4802 13.7997 31.4802 13.5602L32.2037 13.7444C31.4742 13.8673 30.8833 13.9716 30.4312 14.0577C29.979 14.1375 29.6142 14.2112 29.3369 14.2787C29.0596 14.3463 28.8154 14.42 28.6044 14.4998C28.3633 14.5981 28.1672 14.7056 28.0165 14.8223C27.8719 14.9328 27.7633 15.0557 27.691 15.1907C27.6246 15.3258 27.5915 15.4763 27.5915 15.6421C27.5915 15.8693 27.6458 16.0659 27.7543 16.2317C27.8688 16.3914 28.0286 16.5142 28.2336 16.6002C28.4385 16.6862 28.6827 16.7292 28.9661 16.7292ZM41.7718 18.4242C41.0966 18.5532 40.4334 18.6084 39.7822 18.59C39.1372 18.5777 38.5584 18.4642 38.0459 18.2492C37.5394 18.0281 37.1536 17.6749 36.8883 17.1898C36.6472 16.7353 36.5206 16.2747 36.5085 15.808C36.4965 15.335 36.4904 14.8007 36.4904 14.2051V5.71148H38.9502V14.0577C38.9502 14.4446 38.9533 14.7946 38.9593 15.1078C38.9714 15.4149 39.0347 15.6606 39.1492 15.8448C39.3662 16.1949 39.7129 16.3852 40.1892 16.416C40.6655 16.4467 41.193 16.4221 41.7718 16.3423V18.4242ZM34.8264 10.4097V8.47511H41.7718V10.4097H34.8264ZM49.0127 18.7006C48.1928 18.7006 47.412 18.5532 46.6704 18.2584C45.9289 17.9575 45.2717 17.5153 44.6989 16.9318C44.1323 16.3484 43.683 15.6268 43.3515 14.767C43.0259 13.9072 42.8631 12.9154 42.8631 11.7915C42.8631 10.3237 43.1375 9.07698 43.6861 8.05136C44.2408 7.0196 44.9823 6.23349 45.9108 5.69305C46.8453 5.15261 47.8792 4.88239 49.0127 4.88239C50.6888 4.88239 52.0061 5.27851 52.9647 6.07075C53.9233 6.86299 54.5654 7.9838 54.8909 9.43317L52.3769 9.80166C52.1417 9.02784 51.7559 8.41063 51.2193 7.95002C50.6888 7.48328 50.0075 7.24683 49.1755 7.24069C48.3495 7.2284 47.6621 7.40958 47.1135 7.7842C46.5649 8.15883 46.1519 8.69007 45.8746 9.3779C45.6033 10.0657 45.4676 10.8703 45.4676 11.7915C45.4676 12.7127 45.6033 13.511 45.8746 14.1866C46.1519 14.8622 46.5649 15.3873 47.1135 15.7619C47.6621 16.1365 48.3495 16.3299 49.1755 16.3423C49.7362 16.3546 50.2426 16.2562 50.6948 16.0475C51.1529 15.8387 51.5389 15.5101 51.8523 15.0618C52.1658 14.6135 52.389 14.0392 52.5215 13.3391H50.4596V11.4046H55.1442C55.1563 11.4844 55.1653 11.6257 55.1713 11.8283C55.1773 12.031 55.1803 12.1476 55.1803 12.1784C55.1803 13.4497 54.9271 14.5766 54.4207 15.5592C53.9142 16.5418 53.1998 17.3126 52.2774 17.8715C51.3549 18.4242 50.2667 18.7006 49.0127 18.7006ZM56.6311 18.4242V5.15875H62.1296C62.2562 5.15875 62.4249 5.16489 62.636 5.17717C62.853 5.18331 63.046 5.20174 63.2148 5.23245C63.9925 5.35528 64.6286 5.61628 65.123 6.01548C65.6234 6.41467 65.9911 6.91826 66.2263 7.52626C66.4614 8.12813 66.579 8.80061 66.579 9.54372C66.579 10.2868 66.4583 10.9624 66.2172 11.5704C65.9821 12.1723 65.6144 12.6727 65.1139 13.072C64.6196 13.4712 63.9865 13.7321 63.2148 13.855C63.046 13.8795 62.853 13.8979 62.636 13.9103C62.419 13.9226 62.2502 13.9287 62.1296 13.9287H59.091V18.4242H56.6311ZM59.091 11.5888H62.021C62.1477 11.5888 62.2864 11.5827 62.437 11.5704C62.5877 11.5581 62.7264 11.5335 62.853 11.4967C63.1846 11.4046 63.4409 11.251 63.6217 11.0361C63.8026 10.815 63.9262 10.5724 63.9925 10.3083C64.0649 10.0381 64.101 9.78323 64.101 9.54372C64.101 9.3042 64.0649 9.0524 63.9925 8.78832C63.9262 8.5181 63.8026 8.27552 63.6217 8.06057C63.4409 7.83948 63.1846 7.68287 62.853 7.59075C62.7264 7.5539 62.5877 7.52934 62.437 7.51705C62.2864 7.50477 62.1477 7.49863 62.021 7.49863H59.091V11.5888ZM71.0534 18.4242V7.49863H66.9477V5.15875H77.619V7.49863H73.5133V18.4242H71.0534Z" fill="#131313"/>
</g>
<defs>
<clipPath id="clip0_330_258">
<rect width="78" height="24" fill="white"/>
</clipPath>
</defs>
</svg>
